<mxfile host="app.diagrams.net" modified="2024-03-11T12:58:26.338Z" agent="Mozilla/5.0 (Windows NT 10.0; Win64; x64) AppleWebKit/537.36 (KHTML, like Gecko) Chrome/122.0.0.0 Safari/537.36" etag="1T34q8hwatOFcfHRhbUd" version="24.0.4" type="google">
  <diagram name="Page-1" id="V7DpWueC1KGY2AsXtnhm">
    <mxGraphModel grid="1" page="1" gridSize="10" guides="1" tooltips="1" connect="1" arrows="1" fold="1" pageScale="1" pageWidth="827" pageHeight="1169" math="0" shadow="0">
      <root>
        <mxCell id="0" />
        <mxCell id="1" parent="0" />
        <mxCell id="AyH1_v-APNxJxDEJj7M3-41" value="members" style="swimlane;fontStyle=0;childLayout=stackLayout;horizontal=1;startSize=30;horizontalStack=0;resizeParent=1;resizeParentMax=0;resizeLast=0;collapsible=1;marginBottom=0;whiteSpace=wrap;html=1;labelBackgroundColor=default;labelBorderColor=none;swimlaneLine=1;" vertex="1" parent="1">
          <mxGeometry x="210" y="-1079" width="140" height="240" as="geometry" />
        </mxCell>
        <mxCell id="AyH1_v-APNxJxDEJj7M3-129" value="&lt;i&gt;PK mail&amp;nbsp;&lt;/i&gt;" style="text;strokeColor=default;fillColor=none;align=left;verticalAlign=middle;spacingLeft=4;spacingRight=4;overflow=hidden;points=[[0,0.5],[1,0.5]];portConstraint=eastwest;rotatable=0;whiteSpace=wrap;html=1;labelBackgroundColor=default;labelBorderColor=none;swimlaneLine=1;fontStyle=1" vertex="1" parent="AyH1_v-APNxJxDEJj7M3-41">
          <mxGeometry y="30" width="140" height="30" as="geometry" />
        </mxCell>
        <mxCell id="AyH1_v-APNxJxDEJj7M3-43" value="lastname&lt;span style=&quot;white-space: pre;&quot;&gt;&#x9;&lt;/span&gt;" style="text;strokeColor=none;fillColor=none;align=left;verticalAlign=middle;spacingLeft=4;spacingRight=4;overflow=hidden;points=[[0,0.5],[1,0.5]];portConstraint=eastwest;rotatable=0;whiteSpace=wrap;html=1;labelBackgroundColor=default;labelBorderColor=none;swimlaneLine=1;" vertex="1" parent="AyH1_v-APNxJxDEJj7M3-41">
          <mxGeometry y="60" width="140" height="30" as="geometry" />
        </mxCell>
        <mxCell id="AyH1_v-APNxJxDEJj7M3-44" value="firstname" style="text;strokeColor=none;fillColor=none;align=left;verticalAlign=middle;spacingLeft=4;spacingRight=4;overflow=hidden;points=[[0,0.5],[1,0.5]];portConstraint=eastwest;rotatable=0;whiteSpace=wrap;html=1;labelBackgroundColor=default;labelBorderColor=none;swimlaneLine=1;" vertex="1" parent="AyH1_v-APNxJxDEJj7M3-41">
          <mxGeometry y="90" width="140" height="30" as="geometry" />
        </mxCell>
        <mxCell id="AyH1_v-APNxJxDEJj7M3-45" value="password" style="text;strokeColor=none;fillColor=none;align=left;verticalAlign=middle;spacingLeft=4;spacingRight=4;overflow=hidden;points=[[0,0.5],[1,0.5]];portConstraint=eastwest;rotatable=0;whiteSpace=wrap;html=1;labelBackgroundColor=default;labelBorderColor=none;swimlaneLine=1;" vertex="1" parent="AyH1_v-APNxJxDEJj7M3-41">
          <mxGeometry y="120" width="140" height="30" as="geometry" />
        </mxCell>
        <mxCell id="TjhtuSYJ48dbA41qLyJB-1" value="role" style="text;strokeColor=none;fillColor=none;align=left;verticalAlign=middle;spacingLeft=4;spacingRight=4;overflow=hidden;points=[[0,0.5],[1,0.5]];portConstraint=eastwest;rotatable=0;whiteSpace=wrap;html=1;labelBackgroundColor=default;labelBorderColor=none;swimlaneLine=1;" vertex="1" parent="AyH1_v-APNxJxDEJj7M3-41">
          <mxGeometry y="150" width="140" height="30" as="geometry" />
        </mxCell>
        <mxCell id="TjhtuSYJ48dbA41qLyJB-2" value="club_register" style="text;strokeColor=none;fillColor=none;align=left;verticalAlign=middle;spacingLeft=4;spacingRight=4;overflow=hidden;points=[[0,0.5],[1,0.5]];portConstraint=eastwest;rotatable=0;whiteSpace=wrap;html=1;labelBackgroundColor=default;labelBorderColor=none;swimlaneLine=1;" vertex="1" parent="AyH1_v-APNxJxDEJj7M3-41">
          <mxGeometry y="180" width="140" height="30" as="geometry" />
        </mxCell>
        <mxCell id="TjhtuSYJ48dbA41qLyJB-3" value="birthdate" style="text;strokeColor=none;fillColor=none;align=left;verticalAlign=middle;spacingLeft=4;spacingRight=4;overflow=hidden;points=[[0,0.5],[1,0.5]];portConstraint=eastwest;rotatable=0;whiteSpace=wrap;html=1;labelBackgroundColor=default;labelBorderColor=none;swimlaneLine=1;" vertex="1" parent="AyH1_v-APNxJxDEJj7M3-41">
          <mxGeometry y="210" width="140" height="30" as="geometry" />
        </mxCell>
        <mxCell id="TjhtuSYJ48dbA41qLyJB-4" value="play" style="swimlane;fontStyle=0;childLayout=stackLayout;horizontal=1;startSize=30;horizontalStack=0;resizeParent=1;resizeParentMax=0;resizeLast=0;collapsible=1;marginBottom=0;whiteSpace=wrap;html=1;labelBackgroundColor=default;labelBorderColor=none;swimlaneLine=1;" vertex="1" parent="1">
          <mxGeometry x="-10" y="-1079" width="140" height="90" as="geometry" />
        </mxCell>
        <mxCell id="TjhtuSYJ48dbA41qLyJB-5" value="&lt;i&gt;PK FK matches&lt;/i&gt;" style="text;strokeColor=none;fillColor=none;align=left;verticalAlign=middle;spacingLeft=4;spacingRight=4;overflow=hidden;points=[[0,0.5],[1,0.5]];portConstraint=eastwest;rotatable=0;whiteSpace=wrap;html=1;labelBackgroundColor=default;labelBorderColor=none;swimlaneLine=1;fontStyle=1" vertex="1" parent="TjhtuSYJ48dbA41qLyJB-4">
          <mxGeometry y="30" width="140" height="30" as="geometry" />
        </mxCell>
        <mxCell id="TjhtuSYJ48dbA41qLyJB-12" value="&lt;i&gt;PK FK members&lt;/i&gt;" style="text;strokeColor=none;fillColor=none;align=left;verticalAlign=middle;spacingLeft=4;spacingRight=4;overflow=hidden;points=[[0,0.5],[1,0.5]];portConstraint=eastwest;rotatable=0;whiteSpace=wrap;html=1;labelBackgroundColor=default;labelBorderColor=none;swimlaneLine=1;fontStyle=1" vertex="1" parent="TjhtuSYJ48dbA41qLyJB-4">
          <mxGeometry y="60" width="140" height="30" as="geometry" />
        </mxCell>
        <mxCell id="TjhtuSYJ48dbA41qLyJB-13" style="edgeStyle=orthogonalEdgeStyle;rounded=0;orthogonalLoop=1;jettySize=auto;html=1;" edge="1" parent="1" source="TjhtuSYJ48dbA41qLyJB-12" target="AyH1_v-APNxJxDEJj7M3-43">
          <mxGeometry relative="1" as="geometry" />
        </mxCell>
        <mxCell id="TjhtuSYJ48dbA41qLyJB-14" value="matches" style="swimlane;fontStyle=0;childLayout=stackLayout;horizontal=1;startSize=30;horizontalStack=0;resizeParent=1;resizeParentMax=0;resizeLast=0;collapsible=1;marginBottom=0;whiteSpace=wrap;html=1;labelBackgroundColor=default;labelBorderColor=none;swimlaneLine=1;" vertex="1" parent="1">
          <mxGeometry x="-230" y="-1090" width="140" height="180" as="geometry" />
        </mxCell>
        <mxCell id="TjhtuSYJ48dbA41qLyJB-15" value="&lt;i&gt;PK id&amp;nbsp;&lt;/i&gt;" style="text;strokeColor=default;fillColor=none;align=left;verticalAlign=middle;spacingLeft=4;spacingRight=4;overflow=hidden;points=[[0,0.5],[1,0.5]];portConstraint=eastwest;rotatable=0;whiteSpace=wrap;html=1;labelBackgroundColor=default;labelBorderColor=none;swimlaneLine=1;fontStyle=1" vertex="1" parent="TjhtuSYJ48dbA41qLyJB-14">
          <mxGeometry y="30" width="140" height="30" as="geometry" />
        </mxCell>
        <mxCell id="TjhtuSYJ48dbA41qLyJB-16" value="FK adversary" style="text;strokeColor=none;fillColor=none;align=left;verticalAlign=middle;spacingLeft=4;spacingRight=4;overflow=hidden;points=[[0,0.5],[1,0.5]];portConstraint=eastwest;rotatable=0;whiteSpace=wrap;html=1;labelBackgroundColor=default;labelBorderColor=none;swimlaneLine=1;" vertex="1" parent="TjhtuSYJ48dbA41qLyJB-14">
          <mxGeometry y="60" width="140" height="30" as="geometry" />
        </mxCell>
        <mxCell id="TjhtuSYJ48dbA41qLyJB-17" value="adversary_score" style="text;strokeColor=none;fillColor=none;align=left;verticalAlign=middle;spacingLeft=4;spacingRight=4;overflow=hidden;points=[[0,0.5],[1,0.5]];portConstraint=eastwest;rotatable=0;whiteSpace=wrap;html=1;labelBackgroundColor=default;labelBorderColor=none;swimlaneLine=1;" vertex="1" parent="TjhtuSYJ48dbA41qLyJB-14">
          <mxGeometry y="90" width="140" height="30" as="geometry" />
        </mxCell>
        <mxCell id="TjhtuSYJ48dbA41qLyJB-18" value="hcc_score" style="text;strokeColor=none;fillColor=none;align=left;verticalAlign=middle;spacingLeft=4;spacingRight=4;overflow=hidden;points=[[0,0.5],[1,0.5]];portConstraint=eastwest;rotatable=0;whiteSpace=wrap;html=1;labelBackgroundColor=default;labelBorderColor=none;swimlaneLine=1;" vertex="1" parent="TjhtuSYJ48dbA41qLyJB-14">
          <mxGeometry y="120" width="140" height="30" as="geometry" />
        </mxCell>
        <mxCell id="TjhtuSYJ48dbA41qLyJB-19" value="start_date" style="text;strokeColor=none;fillColor=none;align=left;verticalAlign=middle;spacingLeft=4;spacingRight=4;overflow=hidden;points=[[0,0.5],[1,0.5]];portConstraint=eastwest;rotatable=0;whiteSpace=wrap;html=1;labelBackgroundColor=default;labelBorderColor=none;swimlaneLine=1;" vertex="1" parent="TjhtuSYJ48dbA41qLyJB-14">
          <mxGeometry y="150" width="140" height="30" as="geometry" />
        </mxCell>
        <mxCell id="TjhtuSYJ48dbA41qLyJB-22" style="edgeStyle=orthogonalEdgeStyle;rounded=0;orthogonalLoop=1;jettySize=auto;html=1;entryX=1.005;entryY=0.867;entryDx=0;entryDy=0;entryPerimeter=0;" edge="1" parent="1" source="TjhtuSYJ48dbA41qLyJB-12" target="TjhtuSYJ48dbA41qLyJB-16">
          <mxGeometry relative="1" as="geometry" />
        </mxCell>
        <mxCell id="TjhtuSYJ48dbA41qLyJB-23" value="adversary_teams" style="swimlane;fontStyle=0;childLayout=stackLayout;horizontal=1;startSize=30;horizontalStack=0;resizeParent=1;resizeParentMax=0;resizeLast=0;collapsible=1;marginBottom=0;whiteSpace=wrap;html=1;labelBackgroundColor=default;labelBorderColor=none;swimlaneLine=1;" vertex="1" parent="1">
          <mxGeometry x="-230" y="-860" width="140" height="120" as="geometry" />
        </mxCell>
        <mxCell id="TjhtuSYJ48dbA41qLyJB-24" value="&lt;i&gt;PK id&amp;nbsp;&lt;/i&gt;" style="text;strokeColor=default;fillColor=none;align=left;verticalAlign=middle;spacingLeft=4;spacingRight=4;overflow=hidden;points=[[0,0.5],[1,0.5]];portConstraint=eastwest;rotatable=0;whiteSpace=wrap;html=1;labelBackgroundColor=default;labelBorderColor=none;swimlaneLine=1;fontStyle=1" vertex="1" parent="TjhtuSYJ48dbA41qLyJB-23">
          <mxGeometry y="30" width="140" height="30" as="geometry" />
        </mxCell>
        <mxCell id="TjhtuSYJ48dbA41qLyJB-25" value="name" style="text;strokeColor=none;fillColor=none;align=left;verticalAlign=middle;spacingLeft=4;spacingRight=4;overflow=hidden;points=[[0,0.5],[1,0.5]];portConstraint=eastwest;rotatable=0;whiteSpace=wrap;html=1;labelBackgroundColor=default;labelBorderColor=none;swimlaneLine=1;" vertex="1" parent="TjhtuSYJ48dbA41qLyJB-23">
          <mxGeometry y="60" width="140" height="30" as="geometry" />
        </mxCell>
        <mxCell id="TjhtuSYJ48dbA41qLyJB-26" value="logo" style="text;strokeColor=none;fillColor=none;align=left;verticalAlign=middle;spacingLeft=4;spacingRight=4;overflow=hidden;points=[[0,0.5],[1,0.5]];portConstraint=eastwest;rotatable=0;whiteSpace=wrap;html=1;labelBackgroundColor=default;labelBorderColor=none;swimlaneLine=1;" vertex="1" parent="TjhtuSYJ48dbA41qLyJB-23">
          <mxGeometry y="90" width="140" height="30" as="geometry" />
        </mxCell>
        <mxCell id="TjhtuSYJ48dbA41qLyJB-29" style="edgeStyle=orthogonalEdgeStyle;rounded=0;orthogonalLoop=1;jettySize=auto;html=1;" edge="1" parent="1" target="TjhtuSYJ48dbA41qLyJB-23">
          <mxGeometry relative="1" as="geometry">
            <mxPoint x="-160" y="-910" as="sourcePoint" />
            <Array as="points">
              <mxPoint x="-160" y="-909" />
            </Array>
          </mxGeometry>
        </mxCell>
        <mxCell id="TjhtuSYJ48dbA41qLyJB-30" value="news" style="swimlane;fontStyle=0;childLayout=stackLayout;horizontal=1;startSize=30;horizontalStack=0;resizeParent=1;resizeParentMax=0;resizeLast=0;collapsible=1;marginBottom=0;whiteSpace=wrap;html=1;labelBackgroundColor=default;labelBorderColor=none;swimlaneLine=1;" vertex="1" parent="1">
          <mxGeometry x="210" y="-780" width="140" height="210" as="geometry" />
        </mxCell>
        <mxCell id="TjhtuSYJ48dbA41qLyJB-31" value="&lt;i&gt;PK id&amp;nbsp;&lt;/i&gt;" style="text;strokeColor=default;fillColor=none;align=left;verticalAlign=middle;spacingLeft=4;spacingRight=4;overflow=hidden;points=[[0,0.5],[1,0.5]];portConstraint=eastwest;rotatable=0;whiteSpace=wrap;html=1;labelBackgroundColor=default;labelBorderColor=none;swimlaneLine=1;fontStyle=1" vertex="1" parent="TjhtuSYJ48dbA41qLyJB-30">
          <mxGeometry y="30" width="140" height="30" as="geometry" />
        </mxCell>
        <mxCell id="TjhtuSYJ48dbA41qLyJB-32" value="FK members" style="text;strokeColor=none;fillColor=none;align=left;verticalAlign=middle;spacingLeft=4;spacingRight=4;overflow=hidden;points=[[0,0.5],[1,0.5]];portConstraint=eastwest;rotatable=0;whiteSpace=wrap;html=1;labelBackgroundColor=default;labelBorderColor=none;swimlaneLine=1;" vertex="1" parent="TjhtuSYJ48dbA41qLyJB-30">
          <mxGeometry y="60" width="140" height="30" as="geometry" />
        </mxCell>
        <mxCell id="TjhtuSYJ48dbA41qLyJB-33" value="title" style="text;strokeColor=none;fillColor=none;align=left;verticalAlign=middle;spacingLeft=4;spacingRight=4;overflow=hidden;points=[[0,0.5],[1,0.5]];portConstraint=eastwest;rotatable=0;whiteSpace=wrap;html=1;labelBackgroundColor=default;labelBorderColor=none;swimlaneLine=1;" vertex="1" parent="TjhtuSYJ48dbA41qLyJB-30">
          <mxGeometry y="90" width="140" height="30" as="geometry" />
        </mxCell>
        <mxCell id="TjhtuSYJ48dbA41qLyJB-34" value="image" style="text;strokeColor=none;fillColor=none;align=left;verticalAlign=middle;spacingLeft=4;spacingRight=4;overflow=hidden;points=[[0,0.5],[1,0.5]];portConstraint=eastwest;rotatable=0;whiteSpace=wrap;html=1;labelBackgroundColor=default;labelBorderColor=none;swimlaneLine=1;" vertex="1" parent="TjhtuSYJ48dbA41qLyJB-30">
          <mxGeometry y="120" width="140" height="30" as="geometry" />
        </mxCell>
        <mxCell id="TjhtuSYJ48dbA41qLyJB-35" value="content" style="text;strokeColor=none;fillColor=none;align=left;verticalAlign=middle;spacingLeft=4;spacingRight=4;overflow=hidden;points=[[0,0.5],[1,0.5]];portConstraint=eastwest;rotatable=0;whiteSpace=wrap;html=1;labelBackgroundColor=default;labelBorderColor=none;swimlaneLine=1;" vertex="1" parent="TjhtuSYJ48dbA41qLyJB-30">
          <mxGeometry y="150" width="140" height="30" as="geometry" />
        </mxCell>
        <mxCell id="TjhtuSYJ48dbA41qLyJB-36" value="publication_date" style="text;strokeColor=none;fillColor=none;align=left;verticalAlign=middle;spacingLeft=4;spacingRight=4;overflow=hidden;points=[[0,0.5],[1,0.5]];portConstraint=eastwest;rotatable=0;whiteSpace=wrap;html=1;labelBackgroundColor=default;labelBorderColor=none;swimlaneLine=1;" vertex="1" parent="TjhtuSYJ48dbA41qLyJB-30">
          <mxGeometry y="180" width="140" height="30" as="geometry" />
        </mxCell>
        <mxCell id="TjhtuSYJ48dbA41qLyJB-37" style="edgeStyle=orthogonalEdgeStyle;rounded=0;orthogonalLoop=1;jettySize=auto;html=1;entryX=0.499;entryY=0.996;entryDx=0;entryDy=0;entryPerimeter=0;" edge="1" parent="1" source="TjhtuSYJ48dbA41qLyJB-30" target="TjhtuSYJ48dbA41qLyJB-3">
          <mxGeometry relative="1" as="geometry" />
        </mxCell>
      </root>
    </mxGraphModel>
  </diagram>
</mxfile>
